<?xml version="1.0" encoding="UTF-8" standalone="no"?>
<!-- Created with Inkscape (http://www.inkscape.org/) -->

<svg
   width="3.1072552mm"
   height="3.1058543mm"
   viewBox="0 0 3.1072552 3.1058544"
   version="1.1"
   id="svg1"
   xml:space="preserve"
   xmlns:inkscape="http://www.inkscape.org/namespaces/inkscape"
   xmlns:sodipodi="http://sodipodi.sourceforge.net/DTD/sodipodi-0.dtd"
   xmlns="http://www.w3.org/2000/svg"
   xmlns:svg="http://www.w3.org/2000/svg"><sodipodi:namedview
     id="namedview1"
     pagecolor="#ffffff"
     bordercolor="#000000"
     borderopacity="0.25"
     inkscape:showpageshadow="2"
     inkscape:pageopacity="0.0"
     inkscape:pagecheckerboard="0"
     inkscape:deskcolor="#d1d1d1"
     inkscape:document-units="mm"><inkscape:page
       x="1.7611262e-06"
       y="8.4884526e-08"
       width="3.1072555"
       height="3.1058545"
       id="page3"
       margin="0"
       bleed="0" /></sodipodi:namedview><defs
     id="defs1"><clipPath
       clipPathUnits="userSpaceOnUse"
       id="clipPath762"><path
         d="M 0,364.252 H 200.693 V 0 H 0 Z"
         transform="translate(-139.29891,-319.70801)"
         id="path762" /></clipPath></defs><g
     id="layer-MC0"
     inkscape:groupmode="layer"
     inkscape:label="Graphics"
     transform="matrix(0.26458332,0,0,0.26458334,-46.824502,-14.570428)"><path
       id="path761"
       d="m 0,0 c 0.076,-0.142 0.179,-0.332 0.179,-0.671 0,-0.339 -0.103,-0.529 -0.177,-0.667 -0.059,-0.103 -0.086,-0.155 -0.086,-0.299 0,-0.145 0.027,-0.196 0.085,-0.298 0.075,-0.144 0.178,-0.333 0.178,-0.67 0,-0.341 -0.103,-0.532 -0.178,-0.671 -0.058,-0.104 -0.085,-0.156 -0.085,-0.298 0,-0.215 -0.176,-0.391 -0.391,-0.391 -0.214,0 -0.39,0.176 -0.39,0.391 0,0.341 0.102,0.531 0.178,0.67 0.056,0.104 0.084,0.156 0.084,0.299 0,0.14 -0.027,0.191 -0.081,0.294 -0.072,0.131 -0.181,0.327 -0.181,0.674 0,0.347 0.109,0.542 0.18,0.672 0.055,0.102 0.082,0.154 0.082,0.294 0,0.141 -0.028,0.192 -0.083,0.296 -0.072,0.13 -0.179,0.325 -0.179,0.669 0,0.347 0.109,0.541 0.18,0.668 0.056,0.102 0.082,0.152 0.082,0.292 0,0.215 0.175,0.391 0.39,0.391 0.217,0 0.392,-0.176 0.392,-0.391 C 0.179,0.917 0.076,0.727 0.002,0.59 -0.057,0.484 -0.084,0.434 -0.084,0.294 -0.084,0.15 -0.054,0.097 0,0 m -1.826,0.007 c 0.08,-0.146 0.183,-0.335 0.183,-0.678 0,-0.341 -0.102,-0.531 -0.177,-0.67 -0.057,-0.103 -0.086,-0.157 -0.086,-0.296 0,-0.138 0.029,-0.192 0.081,-0.29 0.08,-0.147 0.182,-0.338 0.182,-0.678 0,-0.343 -0.102,-0.533 -0.177,-0.672 -0.057,-0.106 -0.086,-0.159 -0.086,-0.297 0,-0.215 -0.176,-0.391 -0.391,-0.391 -0.215,0 -0.391,0.176 -0.391,0.391 0,0.339 0.103,0.53 0.178,0.669 0.058,0.103 0.086,0.154 0.086,0.3 0,0.143 -0.028,0.194 -0.084,0.296 -0.077,0.141 -0.18,0.331 -0.18,0.672 0,0.345 0.105,0.534 0.182,0.672 0.054,0.1 0.082,0.151 0.082,0.294 0,0.144 -0.03,0.197 -0.084,0.293 -0.077,0.142 -0.18,0.333 -0.18,0.672 0,0.346 0.11,0.54 0.182,0.668 0.054,0.099 0.082,0.151 0.082,0.292 0,0.215 0.176,0.391 0.391,0.391 0.215,0 0.39,-0.176 0.39,-0.391 0,-0.342 -0.103,-0.531 -0.178,-0.669 -0.057,-0.105 -0.085,-0.157 -0.085,-0.291 0,-0.138 0.029,-0.191 0.08,-0.287 M -3.644,0 c 0.078,-0.138 0.182,-0.327 0.182,-0.671 0,-0.345 -0.108,-0.541 -0.182,-0.672 -0.052,-0.096 -0.083,-0.15 -0.083,-0.294 0,-0.144 0.029,-0.196 0.084,-0.299 0.073,-0.128 0.181,-0.325 0.181,-0.669 0,-0.344 -0.104,-0.534 -0.181,-0.673 -0.053,-0.099 -0.084,-0.153 -0.084,-0.296 0,-0.215 -0.175,-0.391 -0.39,-0.391 -0.215,0 -0.391,0.176 -0.391,0.391 0,0.346 0.11,0.542 0.18,0.672 0.057,0.102 0.084,0.154 0.084,0.297 0,0.141 -0.027,0.193 -0.084,0.294 -0.075,0.139 -0.18,0.33 -0.18,0.674 0,0.347 0.105,0.534 0.18,0.672 0.057,0.104 0.084,0.154 0.084,0.294 0,0.142 -0.027,0.192 -0.084,0.294 -0.07,0.129 -0.18,0.324 -0.18,0.671 0,0.345 0.105,0.532 0.18,0.67 0.055,0.097 0.084,0.149 0.084,0.29 0,0.215 0.176,0.391 0.391,0.391 0.216,0 0.391,-0.176 0.391,-0.391 0,-0.343 -0.104,-0.532 -0.182,-0.67 -0.054,-0.1 -0.083,-0.15 -0.083,-0.29 0,-0.141 0.029,-0.192 0.083,-0.294 m 1.479,3.242 c -2.429,0 -4.403,-1.971 -4.403,-4.402 0,-2.432 1.974,-4.402 4.403,-4.402 2.433,0 4.405,1.97 4.405,4.402 0,2.431 -1.972,4.402 -4.405,4.402"
       style="fill:#e69f12;fill-opacity:1;fill-rule:nonzero;stroke:none"
       transform="matrix(1.3333333,0,0,-1.3333333,185.73187,59.392)"
       clip-path="url(#clipPath762)"
       inkscape:export-filename="mode2.svg"
       inkscape:export-xdpi="96"
       inkscape:export-ydpi="96" /></g></svg>
