<?xml version="1.0" encoding="UTF-8" standalone="no"?>
<!-- Created with Inkscape (http://www.inkscape.org/) -->

<svg
   width="3.108321mm"
   height="3.1062086mm"
   viewBox="0 0 3.108321 3.1062087"
   version="1.1"
   id="svg1"
   xml:space="preserve"
   xmlns:inkscape="http://www.inkscape.org/namespaces/inkscape"
   xmlns:sodipodi="http://sodipodi.sourceforge.net/DTD/sodipodi-0.dtd"
   xmlns="http://www.w3.org/2000/svg"
   xmlns:svg="http://www.w3.org/2000/svg"><sodipodi:namedview
     id="namedview1"
     pagecolor="#ffffff"
     bordercolor="#000000"
     borderopacity="0.25"
     inkscape:showpageshadow="2"
     inkscape:pageopacity="0.0"
     inkscape:pagecheckerboard="0"
     inkscape:deskcolor="#d1d1d1"
     inkscape:document-units="mm"><inkscape:page
       x="2.3421876e-06"
       y="-7.3742505e-08"
       width="3.1083212"
       height="3.1062088"
       id="page3"
       margin="0"
       bleed="0" /></sodipodi:namedview><defs
     id="defs1"><clipPath
       clipPathUnits="userSpaceOnUse"
       id="clipPath764"><path
         d="M 0,364.252 H 200.693 V 0 H 0 Z"
         transform="translate(-151.041,-318.02051)"
         id="path764" /></clipPath></defs><g
     id="layer-MC0"
     inkscape:groupmode="layer"
     inkscape:label="Graphics"
     transform="matrix(0.26458332,0,0,0.26458334,-50.792916,-14.570252)"><path
       id="path763"
       d="m 0,0 c -0.018,-0.147 -0.096,-0.283 -0.131,-0.4 -0.037,-0.118 -0.121,-0.215 -0.156,-0.284 -0.045,-0.068 -0.082,-0.107 -0.082,-0.107 l -0.014,-0.015 c -0.008,-0.008 -0.021,-0.008 -0.029,0 -0.004,0.004 -0.006,0.009 -0.006,0.015 0,0 -0.014,0.625 -0.025,1.25 0.011,0.625 0.025,1.25 0.025,1.25 0,0.012 0.01,0.021 0.022,0.021 0.005,0 0.011,-0.003 0.015,-0.007 l 0.012,-0.014 c 0,0 0.137,-0.156 0.24,-0.391 C -0.095,1.201 -0.014,1.064 0,0.918 0.018,0.771 0.037,0.615 0.057,0.459 0.037,0.303 0.018,0.146 0,0 M -1.104,-0.268 C -1.12,-0.5 -1.199,-0.717 -1.234,-0.902 -1.272,-1.088 -1.355,-1.243 -1.39,-1.352 -1.434,-1.46 -1.473,-1.522 -1.473,-1.522 l -0.006,-0.011 c -0.007,-0.011 -0.021,-0.015 -0.032,-0.008 -0.007,0.004 -0.01,0.012 -0.01,0.019 0,0 -0.014,0.991 -0.026,1.981 0.012,0.99 0.026,1.98 0.026,1.98 0,0.013 0.009,0.024 0.023,0.024 0.008,0 0.016,-0.005 0.019,-0.013 l 0.006,-0.011 c 0,0 0.137,-0.248 0.241,-0.619 0.033,-0.185 0.115,-0.402 0.128,-0.634 0.018,-0.232 0.038,-0.479 0.057,-0.727 -0.019,-0.248 -0.039,-0.495 -0.057,-0.727 m -1.176,-2.38 c 0,-0.207 -0.169,-0.375 -0.375,-0.375 -0.207,0 -0.375,0.168 -0.375,0.375 v 6.214 c 0,0.207 0.168,0.375 0.375,0.375 0.206,0 0.375,-0.168 0.375,-0.375 z m -1.509,1.126 c 0,-0.012 -0.01,-0.023 -0.024,-0.023 0,0 -0.015,0.005 -0.019,0.013 l -0.006,0.01 c 0,0 -0.137,0.249 -0.24,0.62 -0.034,0.185 -0.115,0.402 -0.129,0.634 -0.018,0.232 -0.037,0.479 -0.057,0.727 0.02,0.248 0.039,0.495 0.057,0.727 0.017,0.232 0.096,0.449 0.131,0.634 0.038,0.186 0.121,0.341 0.156,0.45 0.044,0.108 0.082,0.169 0.082,0.169 l 0.006,0.012 c 0.008,0.011 0.021,0.015 0.031,0.008 0.008,-0.004 0.012,-0.012 0.012,-0.02 0,0 0.014,-0.99 0.025,-1.98 -0.011,-0.99 -0.025,-1.981 -0.025,-1.981 m -1.104,0.731 c 0,-0.012 -0.009,-0.021 -0.021,-0.021 0,0 -0.012,0.002 -0.016,0.007 l -0.011,0.014 c 0,0 -0.137,0.156 -0.241,0.391 -0.035,0.117 -0.115,0.253 -0.129,0.4 -0.017,0.146 -0.037,0.303 -0.056,0.459 0.019,0.156 0.039,0.312 0.056,0.459 0.018,0.146 0.096,0.283 0.131,0.4 0.038,0.118 0.121,0.215 0.156,0.284 0.044,0.068 0.083,0.107 0.083,0.107 l 0.013,0.015 c 0.008,0.008 0.022,0.008 0.03,0 0.003,-0.004 0.005,-0.009 0.005,-0.015 0,0 0.014,-0.625 0.026,-1.25 -0.012,-0.625 -0.026,-1.25 -0.026,-1.25 m 2.239,5.721 c -2.432,0 -4.407,-1.971 -4.407,-4.403 0,-2.431 1.975,-4.402 4.407,-4.402 2.43,0 4.404,1.971 4.404,4.402 0,2.432 -1.974,4.403 -4.404,4.403"
       style="fill:#db285d;fill-opacity:1;fill-rule:nonzero;stroke:none"
       transform="matrix(1.3333333,0,0,-1.3333333,201.388,61.642)"
       clip-path="url(#clipPath764)"
       inkscape:export-filename="mode3.svg"
       inkscape:export-xdpi="96"
       inkscape:export-ydpi="96" /></g></svg>
