<?xml version="1.0" encoding="UTF-8" standalone="no"?>
<!-- Created with Inkscape (http://www.inkscape.org/) -->

<svg
   width="3.1065607mm"
   height="3.1062076mm"
   viewBox="0 0 3.1065607 3.1062077"
   version="1.1"
   id="svg1"
   xml:space="preserve"
   xmlns:inkscape="http://www.inkscape.org/namespaces/inkscape"
   xmlns:sodipodi="http://sodipodi.sourceforge.net/DTD/sodipodi-0.dtd"
   xmlns="http://www.w3.org/2000/svg"
   xmlns:svg="http://www.w3.org/2000/svg"><sodipodi:namedview
     id="namedview1"
     pagecolor="#ffffff"
     bordercolor="#000000"
     borderopacity="0.25"
     inkscape:showpageshadow="2"
     inkscape:pageopacity="0.0"
     inkscape:pagecheckerboard="0"
     inkscape:deskcolor="#d1d1d1"
     inkscape:document-units="mm"><inkscape:page
       x="2.9608257e-06"
       y="-1.1739141e-07"
       width="3.1065609"
       height="3.1062078"
       id="page3"
       margin="0"
       bleed="0" /></sodipodi:namedview><defs
     id="defs1"><clipPath
       clipPathUnits="userSpaceOnUse"
       id="clipPath754"><path
         d="M 0,364.252 H 200.693 V 0 H 0 Z"
         transform="translate(-125.7969,-317.59771)"
         id="path754" /></clipPath><clipPath
       clipPathUnits="userSpaceOnUse"
       id="clipPath756"><path
         d="M 0,364.252 H 200.693 V 0 H 0 Z"
         transform="translate(-125.7969,-318.99801)"
         id="path756" /></clipPath><clipPath
       clipPathUnits="userSpaceOnUse"
       id="clipPath758"><path
         d="M 0,364.252 H 200.693 V 0 H 0 Z"
         transform="translate(-125.7969,-315.23341)"
         id="path758" /></clipPath><clipPath
       clipPathUnits="userSpaceOnUse"
       id="clipPath760"><path
         d="M 0,364.252 H 200.693 V 0 H 0 Z"
         transform="translate(-125.7969,-316.46781)"
         id="path760" /></clipPath></defs><g
     id="layer-MC0"
     inkscape:groupmode="layer"
     inkscape:label="Graphics"
     transform="matrix(0.26458332,0,0,0.26458334,-42.825753,-14.570287)"><path
       id="path753"
       d="M 0,0 C -0.523,0 -0.948,0.426 -0.948,0.95 -0.948,1.475 -0.523,1.9 0,1.9 0.523,1.9 0.951,1.475 0.951,0.95 0.951,0.426 0.523,0 0,0 m 0,2.53 c -0.871,0 -1.579,-0.709 -1.579,-1.58 0,-0.871 0.708,-1.58 1.579,-1.58 0.872,0 1.582,0.709 1.582,1.58 0,0.871 -0.71,1.58 -1.582,1.58"
       style="fill:#03a3ac;fill-opacity:1;fill-rule:nonzero;stroke:none"
       transform="matrix(1.3333333,0,0,-1.3333333,167.7292,62.205733)"
       clip-path="url(#clipPath754)" /><path
       id="path755"
       d="m 0,0 c -0.247,0 -0.448,-0.202 -0.448,-0.45 0,-0.248 0.201,-0.45 0.448,-0.45 0.248,0 0.451,0.202 0.451,0.45 C 0.451,-0.202 0.248,0 0,0"
       style="fill:#03a3ac;fill-opacity:1;fill-rule:nonzero;stroke:none"
       transform="matrix(1.3333333,0,0,-1.3333333,167.7292,60.338667)"
       clip-path="url(#clipPath756)" /><path
       id="path757"
       d="m 0,0 c -1.828,0 -3.315,1.487 -3.315,3.314 0,1.828 1.487,3.315 3.315,3.315 1.828,0 3.316,-1.487 3.316,-3.315 C 3.316,1.487 1.828,0 0,0 m 0,7.717 c -2.429,0 -4.401,-1.971 -4.401,-4.403 0,-2.431 1.972,-4.402 4.401,-4.402 2.432,0 4.405,1.971 4.405,4.402 0,2.432 -1.973,4.403 -4.405,4.403"
       style="fill:#03a3ac;fill-opacity:1;fill-rule:nonzero;stroke:none"
       transform="matrix(1.3333333,0,0,-1.3333333,167.7292,65.358133)"
       clip-path="url(#clipPath758)"
       inkscape:export-filename="mode1.svg"
       inkscape:export-xdpi="96"
       inkscape:export-ydpi="96" /><path
       id="path759"
       d="m 0,0 c -1.146,0 -2.079,0.934 -2.079,2.08 0,1.147 0.933,2.08 2.079,2.08 1.148,0 2.082,-0.933 2.082,-2.08 C 2.082,0.934 1.148,0 0,0 m 0,4.844 c -1.525,0 -2.765,-1.24 -2.765,-2.764 0,-1.524 1.24,-2.764 2.765,-2.764 1.525,0 2.766,1.24 2.766,2.764 0,1.524 -1.241,2.764 -2.766,2.764"
       style="fill:#03a3ac;fill-opacity:1;fill-rule:nonzero;stroke:none"
       transform="matrix(1.3333333,0,0,-1.3333333,167.7292,63.712267)"
       clip-path="url(#clipPath760)" /></g></svg>
