<?xml version="1.0" encoding="UTF-8" standalone="no"?>
<!-- Created with Inkscape (http://www.inkscape.org/) -->

<svg
   width="3.1076267mm"
   height="3.1062086mm"
   viewBox="0 0 3.1076267 3.1062087"
   version="1.1"
   id="svg1"
   xml:space="preserve"
   xmlns:inkscape="http://www.inkscape.org/namespaces/inkscape"
   xmlns:sodipodi="http://sodipodi.sourceforge.net/DTD/sodipodi-0.dtd"
   xmlns="http://www.w3.org/2000/svg"
   xmlns:svg="http://www.w3.org/2000/svg"><sodipodi:namedview
     id="namedview1"
     pagecolor="#ffffff"
     bordercolor="#000000"
     borderopacity="0.25"
     inkscape:showpageshadow="2"
     inkscape:pageopacity="0.0"
     inkscape:pagecheckerboard="0"
     inkscape:deskcolor="#d1d1d1"
     inkscape:document-units="mm"><inkscape:page
       x="2.7667167e-07"
       y="-7.3995508e-08"
       width="3.1076269"
       height="3.1062088"
       id="page3"
       margin="0"
       bleed="0" /></sodipodi:namedview><defs
     id="defs1"><clipPath
       clipPathUnits="userSpaceOnUse"
       id="clipPath668"><path
         d="M 0,364.252 H 200.693 V 0 H 0 Z"
         transform="translate(-64.969702,-317.25981)"
         id="path668" /></clipPath></defs><g
     id="layer-MC0"
     inkscape:groupmode="layer"
     inkscape:label="Graphics"
     transform="matrix(0.26458332,0,0,0.26458334,-20.847635,-14.62024)"><path
       id="path667"
       d="m 0,0 c -0.635,0 -1.146,0.514 -1.146,1.146 0,0.633 0.511,1.147 1.146,1.147 0.633,0 1.146,-0.514 1.146,-1.147 C 1.146,0.514 0.633,0 0,0 m -2.938,0 c -0.636,0 -1.148,0.514 -1.148,1.146 0,0.633 0.512,1.147 1.148,1.147 0.63,0 1.144,-0.514 1.144,-1.147 C -1.794,0.514 -2.308,0 -2.938,0 m 1.469,5.549 c -2.433,0 -4.405,-1.971 -4.405,-4.403 0,-2.431 1.972,-4.402 4.405,-4.402 2.43,0 4.404,1.971 4.404,4.402 0,2.432 -1.974,4.403 -4.404,4.403"
       style="fill:#e69e12;fill-opacity:1;fill-rule:nonzero;stroke:none"
       transform="matrix(1.3333333,0,0,-1.3333333,86.626267,62.656267)"
       clip-path="url(#clipPath668)"
       inkscape:export-filename="poly2.svg"
       inkscape:export-xdpi="96"
       inkscape:export-ydpi="96" /></g></svg>
