<?xml version="1.0" encoding="UTF-8" standalone="no"?>
<!-- Created with Inkscape (http://www.inkscape.org/) -->

<svg
   width="3.1072552mm"
   height="3.1058555mm"
   viewBox="0 0 3.1072552 3.1058556"
   version="1.1"
   id="svg1"
   xml:space="preserve"
   xmlns:inkscape="http://www.inkscape.org/namespaces/inkscape"
   xmlns:sodipodi="http://sodipodi.sourceforge.net/DTD/sodipodi-0.dtd"
   xmlns="http://www.w3.org/2000/svg"
   xmlns:svg="http://www.w3.org/2000/svg"><sodipodi:namedview
     id="namedview1"
     pagecolor="#ffffff"
     bordercolor="#000000"
     borderopacity="0.25"
     inkscape:showpageshadow="2"
     inkscape:pageopacity="0.0"
     inkscape:pagecheckerboard="0"
     inkscape:deskcolor="#d1d1d1"
     inkscape:document-units="mm"><inkscape:page
       x="9.3451126e-07"
       y="3.7529907e-07"
       width="3.1072555"
       height="3.1058557"
       id="page3"
       margin="0"
       bleed="0" /></sodipodi:namedview><defs
     id="defs1"><clipPath
       clipPathUnits="userSpaceOnUse"
       id="clipPath670"><path
         d="M 0,364.252 H 200.693 V 0 H 0 Z"
         transform="translate(-76.111404,-318.69731)"
         id="path670" /></clipPath></defs><g
     id="layer-MC0"
     inkscape:groupmode="layer"
     inkscape:label="Graphics"
     transform="matrix(0.26458332,0,0,0.26458334,-24.846613,-14.620416)"><path
       id="path669"
       d="m 0,0 c -0.553,0 -0.996,0.445 -0.996,0.994 0,0.549 0.443,0.994 0.996,0.994 0.547,0 0.992,-0.445 0.992,-0.994 C 0.992,0.445 0.547,0 0,0 m 0,-2.57 c -0.553,0 -0.996,0.445 -0.996,0.992 0,0.549 0.443,0.994 0.996,0.994 0.547,0 0.992,-0.445 0.992,-0.994 C 0.992,-2.125 0.547,-2.57 0,-2.57 M -2.551,0 c -0.549,0 -0.99,0.445 -0.99,0.994 0,0.549 0.441,0.994 0.99,0.994 0.551,0 0.994,-0.445 0.994,-0.994 C -1.557,0.445 -2,0 -2.551,0 m 0,-2.57 c -0.549,0 -0.99,0.445 -0.99,0.992 0,0.549 0.441,0.994 0.99,0.994 0.551,0 0.994,-0.445 0.994,-0.994 0,-0.547 -0.443,-0.992 -0.994,-0.992 m 1.276,6.681 c -2.432,0 -4.405,-1.97 -4.405,-4.402 0,-2.432 1.973,-4.402 4.405,-4.402 2.429,0 4.403,1.97 4.403,4.402 0,2.432 -1.974,4.402 -4.403,4.402"
       style="fill:#db285d;fill-opacity:1;fill-rule:nonzero;stroke:none"
       transform="matrix(1.3333333,0,0,-1.3333333,101.48187,60.7396)"
       clip-path="url(#clipPath670)"
       inkscape:export-filename="poly3.svg"
       inkscape:export-xdpi="96"
       inkscape:export-ydpi="96" /></g></svg>
